<svg xmlns="http://www.w3.org/2000/svg" viewBox="0 0 617.51 792.5"><defs><style>.cls-1,.cls-2,.cls-3,.cls-4,.cls-5,.cls-6,.cls-8,.cls-9{fill:none;}.cls-1{stroke:#0025ff;stroke-width:3px;}.cls-1,.cls-2,.cls-3,.cls-4,.cls-5,.cls-8,.cls-9{stroke-miterlimit:10;}.cls-2{stroke:#fff;stroke-width:8px;opacity:0;}.cls-3{stroke:#ed1c24;stroke-width:4px;}.cls-4{stroke:#e60aff;opacity:0.4;}.cls-5{stroke:#e400dd;}.cls-6{stroke:#009a00;stroke-width:2px;}.cls-7,.cls-9{opacity:0.18;}.cls-8,.cls-9{stroke:blue;}.cls-10{font-size:12px;}.cls-10,.cls-11,.cls-23,.cls-30,.cls-34,.cls-39{fill:#ed1c24;font-family:MyriadPro-Regular, Myriad Pro;}.cls-11,.cls-23{font-size:8px;}.cls-12{letter-spacing:0em;}.cls-13{letter-spacing:0em;}.cls-14{letter-spacing:-0.01em;}.cls-15{letter-spacing:0.03em;}.cls-16{letter-spacing:-0.03em;}.cls-17{letter-spacing:0.02em;}.cls-18,.cls-23{letter-spacing:0.01em;}.cls-19{letter-spacing:-0.01em;}.cls-20{letter-spacing:0em;}.cls-21{letter-spacing:0em;}.cls-22{letter-spacing:0em;}.cls-24{letter-spacing:-0.01em;}.cls-25{letter-spacing:-0.01em;}.cls-26{letter-spacing:-0.01em;}.cls-27{letter-spacing:0.01em;}.cls-28{letter-spacing:-0.01em;}.cls-29{letter-spacing:-0.01em;}.cls-30,.cls-34{font-size:14px;}.cls-31{letter-spacing:-0.05em;}.cls-32{letter-spacing:0.01em;}.cls-33{letter-spacing:0em;}.cls-34{letter-spacing:0em;}.cls-35{letter-spacing:0em;}.cls-36{letter-spacing:-0.01em;}.cls-37{letter-spacing:0.01em;}.cls-38{letter-spacing:0em;}.cls-39{font-size:6px;}</style></defs><title>Wheel_2</title><g id="Layer_2" data-name="Layer 2"><g id="Layer_1-2" data-name="Layer 1"><rect class="cls-1" x="169.37" y="231.86" width="276.32" height="276.32" transform="translate(79.66 793.76) rotate(-112)"/><rect class="cls-1" x="169.37" y="231.86" width="276.32" height="276.32" transform="translate(478.5 819.74) rotate(-161.08)"/><line class="cls-2" x1="307.53" y1="792.25" x2="307.53" y2="0.25"/><line class="cls-2" y1="370.16" x2="617.5" y2="369.62"/><circle class="cls-3" cx="307.53" cy="370.01" r="138.16"/><line class="cls-3" x1="226.29" y1="258.64" x2="307.53" y2="508.17"/><line class="cls-3" x1="389.31" y1="258.92" x2="307.53" y2="508.17"/><line class="cls-3" x1="175.64" y1="412.69" x2="389.31" y2="258.92"/><line class="cls-3" x1="439.42" y1="413.14" x2="226.29" y2="258.64"/><line class="cls-3" x1="175.64" y1="412.69" x2="439.42" y2="413.14"/><line class="cls-4" x1="63.52" y1="792.25" x2="520.61" y2="1.1"/><line class="cls-4" x1="614" y1="193.41" x2="2.83" y2="545.2"/><line class="cls-4" x1="2" y1="194.09" x2="614" y2="545.92"/><line class="cls-4" x1="93.62" y1="0.25" x2="552.29" y2="792.25"/><line class="cls-4" x1="307.5" y1="0.25" x2="307.5" y2="792.25"/><line class="cls-4" x1="614.42" y1="370.43" x2="2.42" y2="370.43"/><circle class="cls-5" cx="307.53" cy="370.01" r="138.16"/><path class="cls-6" d="M259.21,293.34a107.42,107.42,0,0,1,39,15,100.48,100.48,0,0,1,28.31,26.85,93.77,93.77,0,0,1,14.82,33.29,87.54,87.54,0,0,1,.9,34,81.73,81.73,0,0,1-11.38,29.67,76.33,76.33,0,0,1-20.44,21.54A71.27,71.27,0,0,1,285.1,465a66.66,66.66,0,0,1-25.89.69A62.38,62.38,0,0,1,236.63,457a58.17,58.17,0,0,1-16.39-15.54,54.29,54.29,0,0,1-8.58-19.27,50.86,50.86,0,0,1-.52-19.7,47.23,47.23,0,0,1,6.59-17.18,44.12,44.12,0,0,1,11.83-12.47,41,41,0,0,1,14.66-6.53,38.57,38.57,0,0,1,15-.4,35.94,35.94,0,0,1,13.08,5,33.33,33.33,0,0,1,9.48,9,31.22,31.22,0,0,1,5,11.15,29.15,29.15,0,0,1,.3,11.41,27.53,27.53,0,0,1-3.81,10,25.72,25.72,0,0,1-6.85,7.22,24,24,0,0,1-8.49,3.78,22.35,22.35,0,0,1-8.68.23,21,21,0,0,1-7.57-2.91,19.28,19.28,0,0,1-5.49-5.21,18.12,18.12,0,0,1-2.88-6.46,16.92,16.92,0,0,1-.17-6.6,15.75,15.75,0,0,1,2.21-5.76,14.81,14.81,0,0,1,4-4.18,13.77,13.77,0,0,1,4.92-2.19,12.91,12.91,0,0,1,5-.13,11.9,11.9,0,0,1,4.38,1.68,11.11,11.11,0,0,1,3.19,3,10.59,10.59,0,0,1,1.66,3.74,9.86,9.86,0,0,1,.1,3.82,9.07,9.07,0,0,1-1.28,3.33,8.56,8.56,0,0,1-2.29,2.42,8.07,8.07,0,0,1-2.85,1.27,7.53,7.53,0,0,1-2.91.08,6.87,6.87,0,0,1-2.54-1,6.66,6.66,0,0,1-1.84-1.74,6.26,6.26,0,0,1-1-2.17,5.7,5.7,0,0,1-.06-2.21,5.18,5.18,0,0,1,.74-1.93,5,5,0,0,1,1.33-1.4,4.69,4.69,0,0,1,1.65-.74,4.15,4.15,0,0,1,1.68,0,4,4,0,0,1,1.47.56,3.83,3.83,0,0,1,1.07,1,3.64,3.64,0,0,1,.56,1.26,3.46,3.46,0,0,1,0,1.28,3,3,0,0,1-.43,1.12,3,3,0,0,1-.77.81,2.59,2.59,0,0,1-.95.42,2.5,2.5,0,0,1-1,0,2.43,2.43,0,0,1-.85-.33,2.3,2.3,0,0,1-.62-.58,2.36,2.36,0,0,1-.32-.73,1.85,1.85,0,0,1,0-.74,1.76,1.76,0,0,1,.25-.65,1.56,1.56,0,0,1,.45-.47,1.49,1.49,0,0,1,.55-.24,1.33,1.33,0,0,1,.56,0"/><g class="cls-7"><line class="cls-8" x1="405.03" y1="272.96" x2="209.84" y2="272.32"/><line class="cls-8" x1="405.23" y1="467.7" x2="405.03" y2="272.96"/><line class="cls-8" x1="209.84" y1="272.32" x2="210.18" y2="467.07"/><line class="cls-8" x1="405.23" y1="467.7" x2="210.18" y2="467.07"/></g><g class="cls-7"><line class="cls-8" x1="307.53" y1="231.86" x2="445.69" y2="370.01"/><line class="cls-8" x1="307.53" y1="508.17" x2="445.69" y2="370.01"/><line class="cls-8" x1="169.37" y1="370.01" x2="307.53" y2="508.17"/><line class="cls-8" x1="307.53" y1="231.86" x2="169.37" y2="370.01"/></g><line class="cls-8" x1="572.5" y1="264.75" x2="572.75" y2="264.75"/><line class="cls-9" x1="210.01" y1="369.85" x2="405.13" y2="370.33"/><g class="cls-7"><rect class="cls-8" x="209.84" y="272.32" width="195.39" height="195.38"/><line class="cls-8" x1="209.84" y1="435.14" x2="405.23" y2="435.14"/><line class="cls-8" x1="209.84" y1="402.58" x2="405.23" y2="402.58"/><line class="cls-8" x1="209.84" y1="370.01" x2="405.23" y2="370.01"/><line class="cls-8" x1="209.84" y1="337.45" x2="405.23" y2="337.45"/><line class="cls-8" x1="209.84" y1="304.89" x2="405.23" y2="304.89"/><line class="cls-8" x1="372.66" y1="272.32" x2="372.66" y2="467.7"/><line class="cls-8" x1="340.1" y1="272.32" x2="340.1" y2="467.7"/><line class="cls-8" x1="307.53" y1="272.32" x2="307.53" y2="467.7"/><line class="cls-8" x1="274.97" y1="272.32" x2="274.97" y2="467.7"/><line class="cls-8" x1="242.4" y1="272.32" x2="242.4" y2="467.7"/></g><text class="cls-10" transform="translate(317.25 13)">12</text><text class="cls-10" transform="translate(524.75 12.75)">1</text><text class="cls-10" transform="translate(597.85 219.1)">2</text><text class="cls-10" transform="translate(599.6 386.85)">3</text><text class="cls-10" transform="translate(599.6 560.85)">4</text><text class="cls-10" transform="translate(523 772.35)">5</text><text class="cls-10" transform="translate(288.25 774.35)">6</text><text class="cls-10" transform="translate(54.75 773.85)">7</text><text class="cls-10" transform="translate(6.9 511.49)">8</text><text class="cls-10" transform="translate(7.15 348.24)">9</text><text class="cls-10" transform="translate(4.9 171.74)">10</text><text class="cls-10" transform="translate(116.9 12.74)">11</text><text class="cls-11" transform="translate(318.75 26.25)"><tspan class="cls-12">D</tspan><tspan class="cls-13" x="5.36" y="0">e</tspan><tspan class="cls-14" x="9.37" y="0">c</tspan><tspan x="12.9" y="0">ember</tspan></text><text class="cls-11" transform="translate(524.75 24)">Janua<tspan class="cls-15" x="19.52" y="0">r</tspan><tspan x="22.34" y="0">y</tspan></text><text class="cls-11" transform="translate(574.25 231.86)"><tspan class="cls-16">F</tspan><tspan x="3.65" y="0">ebrua</tspan><tspan class="cls-17" x="23.09" y="0">r</tspan><tspan class="cls-13" x="25.9" y="0">y</tspan></text><text class="cls-11" transform="translate(585.25 396.25)"><tspan class="cls-18">M</tspan><tspan class="cls-13" x="6.48" y="0">a</tspan><tspan class="cls-19" x="10.34" y="0">r</tspan><tspan x="12.87" y="0">ch</tspan></text><text class="cls-11" transform="translate(589.5 572.25)"><tspan class="cls-20">A</tspan><tspan x="4.87" y="0">p</tspan><tspan class="cls-21" x="9.42" y="0">r</tspan><tspan class="cls-22" x="12.07" y="0">il</tspan></text><text class="cls-23" transform="translate(515.75 783.25)">M<tspan class="cls-24" x="6.48" y="0">a</tspan><tspan class="cls-13" x="10.27" y="0">y</tspan></text><text class="cls-11" transform="translate(279.23 785.5)">June</text><text class="cls-11" transform="translate(47.04 784.5)">July</text><text class="cls-11" transform="translate(6.9 521.75)"><tspan class="cls-25">A</tspan><tspan x="4.8" y="0">ugust</tspan></text><text class="cls-11" transform="translate(7.15 359.5)"><tspan class="cls-18">S</tspan><tspan x="3.99" y="0">ep</tspan><tspan class="cls-26" x="12.55" y="0">t</tspan><tspan class="cls-13" x="15.15" y="0">ember</tspan></text><text class="cls-11" transform="translate(4.9 185.25)"><tspan class="cls-21">O</tspan><tspan class="cls-27" x="5.54" y="0">c</tspan><tspan class="cls-14" x="9.23" y="0">t</tspan><tspan x="11.83" y="0">ober</tspan></text><text class="cls-11" transform="translate(116.9 24)">N<tspan class="cls-28" x="5.26" y="0">o</tspan><tspan class="cls-29" x="9.6" y="0">v</tspan><tspan x="13.37" y="0">ember</tspan></text><text class="cls-30" transform="translate(374.75 180.75)"><tspan class="cls-31">Y</tspan><tspan x="6.83" y="0">ule</tspan></text><text class="cls-30" transform="translate(493.71 283.83)"><tspan class="cls-32">I</tspan><tspan x="3.49" y="0">mbolc</tspan></text><text class="cls-30" transform="translate(493.71 460.97)">Osta<tspan class="cls-33" x="26.57" y="0">r</tspan><tspan x="31.08" y="0">a</tspan></text><text class="cls-34" transform="translate(367.91 565.47)">B<tspan class="cls-35" x="7.64" y="0">eltane</tspan></text><text class="cls-30" transform="translate(206.41 569.72)">Litha</text><text class="cls-30" transform="translate(52.75 466.59)"><tspan class="cls-36">L</tspan><tspan x="6.4" y="0">ughnasadh</tspan></text><text class="cls-30" transform="translate(85.25 283.83)"><tspan class="cls-37">M</tspan><tspan x="11.34" y="0">abon</tspan></text><text class="cls-30" transform="translate(209.68 185.25)"><tspan class="cls-38">S</tspan><tspan x="6.94" y="0">amhain</tspan></text><text class="cls-39" transform="translate(376.48 203.88)">22</text><text class="cls-39" transform="translate(471.63 289.13)">2</text><text class="cls-39" transform="translate(475.73 443.88)">21</text><text class="cls-39" transform="translate(387.36 537)">1</text><text class="cls-39" transform="translate(232.11 539.75)">22</text><text class="cls-39" transform="translate(134.98 300.81)">21</text><text class="cls-39" transform="translate(142.25 452.75)">2</text><text class="cls-39" transform="translate(224.73 206.13)">1</text></g></g></svg>